<svg xmlns="http://www.w3.org/2000/svg" width="50" height="48" viewBox="0 0 50 48" fill="none">
	<path d="M13.02 38.1818C9.68468 38.1818 6.71789 35.9454 5.64058 32.616L5.56772 32.3651C5.31365 31.4834 5.20722 30.7419 5.20722 30V15.1243L0.152956 32.7925C-0.49709 35.3913 0.984207 38.0855 3.46957 38.8034L35.6854 47.8385C36.0875 47.9476 36.4896 47.9999 36.8855 47.9999C38.9604 47.9999 40.8564 46.5577 41.3878 44.4324L43.2647 38.1818H13.02Z" fill="#999999" />
	<path d="M18.748 15.2727C21.046 15.2727 22.9145 13.3155 22.9145 10.909C22.9145 8.50238 21.046 6.54523 18.748 6.54523C16.4499 6.54523 14.5811 8.50238 14.5811 10.909C14.5811 13.3155 16.4499 15.2727 18.748 15.2727Z" fill="#999999" />
	<path d="M44.7905 0H13.5394C10.6688 0 8.33105 2.44813 8.33105 5.45477V29.4543C8.33105 32.4609 10.6688 34.9091 13.5394 34.9091H44.7905C47.6615 34.9091 49.9993 32.4609 49.9993 29.4543V5.45477C49.9993 2.44813 47.6615 0 44.7905 0ZM13.5394 4.36373H44.7905C45.3658 4.36373 45.8323 4.85232 45.8323 5.45477V20.9434L39.251 12.901C38.5529 12.0437 37.5423 11.5855 36.457 11.5595C35.3778 11.5659 34.3653 12.0677 33.6737 12.9362L25.9357 22.6624L23.4149 20.0289C21.99 18.5368 19.671 18.5368 18.2481 20.0289L12.498 26.0486V5.45477C12.498 4.85232 12.9645 4.36373 13.5394 4.36373Z" fill="#999999" />
</svg>
