<svg xmlns="http://www.w3.org/2000/svg" width="18" height="18" viewBox="0 0 18 18" fill="none">
	<path d="M8.99985 12.4612C9.9519 12.4612 10.7666 12.1223 11.4445 11.4447C12.1222 10.7671 12.4611 9.95195 12.4611 8.99998V3.46163C12.4611 2.50966 12.1225 1.69484 11.4445 1.01691C10.7666 0.339135 9.9519 0 8.99985 0C8.04791 0 7.23306 0.339135 6.55517 1.01691C5.87724 1.69473 5.53833 2.50966 5.53833 3.46163V8.99998C5.53833 9.95192 5.87739 10.7671 6.55517 11.4447C7.23294 12.1223 8.04791 12.4612 8.99985 12.4612Z" fill="#999999" />
	<path d="M15.0249 7.12861C14.8883 6.99157 14.7256 6.92303 14.5381 6.92303C14.3508 6.92303 14.1886 6.99157 14.0514 7.12861C13.9145 7.26562 13.846 7.42785 13.846 7.61529V8.99998C13.846 10.3342 13.3717 11.4753 12.4234 12.4236C11.4754 13.3719 10.3341 13.8461 8.99983 13.8461C7.66564 13.8461 6.52446 13.3719 5.57609 12.4236C4.62783 11.4756 4.15373 10.3342 4.15373 8.99998V7.61529C4.15373 7.42785 4.08519 7.26562 3.94823 7.12861C3.81119 6.99157 3.6491 6.92303 3.46148 6.92303C3.27386 6.92303 3.11159 6.99157 2.97462 7.12861C2.83754 7.26562 2.76904 7.42785 2.76904 7.61529V8.99998C2.76904 10.5937 3.30099 11.9802 4.36458 13.1592C5.42821 14.3382 6.7425 15.0142 8.3075 15.1872V16.6152H5.53831C5.3508 16.6152 5.18857 16.6838 5.05156 16.8208C4.91452 16.9578 4.84598 17.1201 4.84598 17.3076C4.84598 17.4948 4.91452 17.6574 5.05156 17.7943C5.18857 17.9313 5.3508 18 5.53831 18H12.4612C12.6486 18 12.8111 17.9313 12.9479 17.7943C13.0851 17.6575 13.1537 17.4948 13.1537 17.3076C13.1537 17.1201 13.0851 16.9578 12.9479 16.8208C12.8111 16.6838 12.6487 16.6152 12.4612 16.6152H9.69231V15.1872C11.257 15.0142 12.5712 14.3382 13.635 13.1592C14.6987 11.9802 15.2308 10.5937 15.2308 8.99998V7.61529C15.2308 7.42789 15.1621 7.26577 15.0249 7.12861Z" fill="#999999" />
</svg>
